<?xml version="1.0" encoding="UTF-8"?>
<svg version="1.1" xmlns="http://www.w3.org/2000/svg" width="250" height="192">
<path d="M0,0 L4,2 L18,19 L29,33 L43,50 L54,64 L68,81 L81,97 L92,111 L103,124 L114,138 L120,146 L116,145 L109,137 L84,112 L77,104 L51,78 L44,70 L11,37 L4,29 L0,27 L-8,35 L-15,43 L-40,68 L-47,76 L-80,109 L-87,117 L-113,143 L-115,146 L-117,146 L-115,142 L-102,126 L-89,110 L-78,96 L-67,83 L-56,69 L-42,52 L-34,42 L-21,26 L-10,12 Z " fill="#0E62AC" transform="translate(123,0)"/>
<path d="M0,0 L4,2 L16,16 L27,28 L34,36 L43,46 L52,57 L66,72 L75,83 L88,97 L95,105 L100,111 L97,111 L86,100 L78,93 L67,82 L59,75 L51,67 L43,60 L32,49 L24,42 L15,33 L13,32 L13,30 L9,28 L2,21 L-2,23 L-13,34 L-21,41 L-29,49 L-37,56 L-48,67 L-56,74 L-67,85 L-75,92 L-83,100 L-91,107 L-98,113 L-96,109 L-87,99 L-78,89 L-69,78 L-56,64 L-47,53 L-34,39 L-27,31 L-15,17 L-3,4 Z " fill="#C82024" transform="translate(123,34)"/>
<path d="M0,0 L1,0 L2,9 L2,27 L-44,27 L-46,32 L-48,34 L-55,33 L-59,31 L-59,33 L-66,34 L-73,30 L-74,33 L-77,35 L-83,35 L-88,31 L-89,29 L-89,18 L-86,19 L-83,26 L-84,22 L-80,11 L-77,8 L-73,9 L-70,16 L-70,26 L-71,28 L-65,27 L-69,23 L-68,14 L-64,7 L-59,8 L-56,14 L-56,28 L-51,26 L-48,25 L-50,20 L-51,16 L-48,12 L-46,12 L-45,16 L-26,15 L-25,13 L-21,15 L-19,16 L-18,13 L-16,13 L-15,14 L-15,12 L-12,9 L-10,9 L-8,15 L-3,16 L-5,6 L-4,3 Z M-63,13 L-63,15 L-61,15 L-61,13 Z M-77,14 L-77,16 L-75,15 Z M-61,15 Z " fill="#343434" transform="translate(99,154)"/>
<path d="M0,0 L4,2 L20,19 L28,27 L35,35 L47,47 L54,55 L66,67 L73,75 L81,83 L80,85 L72,78 L56,63 L48,56 L36,45 L28,38 L18,29 L8,20 L2,15 L-4,17 L-4,19 L-12,26 L-22,35 L-32,44 L-42,53 L-52,62 L-63,72 L-71,79 L-78,86 L-80,86 L-78,82 L-62,66 L-55,58 L-45,48 L-43,45 L-41,45 L-39,41 L-26,28 L-19,20 L-10,11 L-3,3 Z " fill="#127D59" transform="translate(123,62)"/>
<path d="M0,0 L2,0 L3,9 L31,8 L32,4 L35,3 L35,8 L43,8 L48,2 L53,3 L56,8 L60,8 L59,4 L62,1 L64,1 L66,7 L66,20 L53,21 L49,22 L45,20 L1,20 L-1,17 L-5,18 L-9,15 L-8,8 L-3,4 Z M49,8 L50,11 L50,8 Z M-4,9 Z " fill="#343434" transform="translate(128,161)"/>
<path d="M0,0 L5,5 L19,20 L26,28 L35,38 L42,46 L51,56 L58,64 L68,75 L75,83 L87,97 L93,104 L97,105 L110,121 L119,132 L116,133 L107,123 L83,99 L76,91 L50,65 L43,57 L10,24 L3,16 L-1,12 Z " fill="#0A63AE" transform="translate(124,13)"/>
<path d="M0,0 L4,2 L17,18 L28,32 L42,49 L53,63 L67,80 L80,96 L91,110 L95,116 L92,116 L82,105 L73,94 L60,80 L53,72 L43,61 L36,53 L27,43 L20,35 L11,25 L4,17 L0,12 Z " fill="#283683" transform="translate(124,1)"/>
<path d="M0,0 L1,0 L1,12 L-6,20 L-17,32 L-40,55 L-47,63 L-78,94 L-80,91 L-69,79 L-60,68 L-48,55 L-39,44 L-27,31 L-18,20 L-5,6 Z M-81,92 Z M-82,93 Z " fill="#253684" transform="translate(123,13)"/>
<path d="M0,0 L7,6 L39,38 L46,46 L55,55 L57,53 L64,60 L73,71 L86,85 L93,93 L98,99 L95,99 L84,88 L76,81 L65,70 L57,63 L49,55 L41,48 L30,37 L22,30 L13,21 L11,20 L11,18 L7,16 L0,9 L-2,7 Z " fill="#EE3D32" transform="translate(125,46)"/>
<path d="M0,0 L1,0 L1,10 L-9,20 L-16,28 L-30,42 L-37,50 L-52,65 L-59,73 L-63,77 L-63,81 L-78,95 L-94,110 L-98,113 L-96,109 L-87,99 L-78,89 L-69,78 L-56,64 L-47,53 L-34,39 L-27,31 L-15,17 L-3,4 Z " fill="#ED3B31" transform="translate(123,34)"/>
<path d="M0,0 L2,0 L3,15 L12,15 L8,13 L4,11 L3,10 L3,4 L8,1 L18,0 L16,5 L10,7 L17,13 L19,21 L19,26 L18,27 L-1,27 L-3,18 L-3,3 L0,2 Z " fill="#343434" transform="translate(213,154)"/>
<path d="M0,0 L13,0 L13,2 L10,2 L10,10 L17,10 L17,2 L14,2 L14,0 L26,0 L26,2 L23,2 L23,21 L26,21 L26,23 L14,23 L14,21 L17,21 L16,13 L11,13 L10,21 L13,21 L13,23 L0,23 L0,21 L3,21 L3,2 L0,2 Z " fill="#274788" transform="translate(95,127)"/>
<path d="M0,0 L4,2 L6,4 L12,6 L20,13 L21,11 L28,18 L35,26 L47,38 L54,46 L62,54 L61,56 L53,49 L37,34 L29,27 L17,16 L9,9 L0,1 Z " fill="#148D62" transform="translate(142,91)"/>
<path d="M0,0 L12,0 L12,8 L10,8 L7,3 L2,3 L4,7 L12,12 L13,13 L13,19 L9,23 L2,24 L-1,23 L-4,24 L-4,14 L-2,14 L2,20 L8,21 L6,16 L-2,11 L-4,5 Z " fill="#31508F" transform="translate(81,127)"/>
<path d="M0,0 L2,0 L11,19 L11,21 L13,21 L13,23 L1,23 L1,21 L4,21 L3,17 L-5,18 L-6,21 L-3,21 L-3,23 L-11,23 L-11,21 L-9,21 L-7,15 Z M-2,9 L-3,14 L1,13 Z " fill="#385591" transform="translate(150,127)"/>
<path d="M0,0 L0,3 L-8,11 L-5,14 L-12,21 L-20,28 L-32,39 L-40,46 L-47,53 L-49,53 L-47,49 L-31,33 L-24,25 L-14,15 L-12,12 L-10,12 L-8,8 Z " fill="#158163" transform="translate(92,95)"/>
<path d="M0,0 L4,1 L6,0 L5,4 L-2,12 L-28,38 L-30,41 L-32,41 L-30,37 L-17,21 L-4,5 Z " fill="#2370AF" transform="translate(38,105)"/>
<path d="M0,0 L3,0 L7,9 L7,19 L5,21 L-6,21 L-7,20 L-7,10 L1,10 L1,7 L-2,7 L-1,1 Z " fill="#343434" transform="translate(202,160)"/>
<path d="M0,0 L4,1 L19,17 L27,25 L34,33 L38,37 L38,40 L34,38 L13,17 L5,10 L0,5 Z " fill="#157E59" transform="translate(124,64)"/>
<path d="M0,0 L1,3 L-1,7 L-3,9 L-3,13 L-18,27 L-34,42 L-38,45 L-36,41 L-27,31 L-18,21 L-9,10 Z " fill="#EA5442" transform="translate(63,102)"/>
<path d="M0,0 L3,1 L1,2 L1,7 L-23,31 L-26,30 L-24,25 L-10,11 L-3,3 Z " fill="#129C60" transform="translate(123,62)"/>
<path d="M0,0 L13,0 L13,2 L9,2 L9,21 L13,21 L13,23 L0,23 L0,21 L3,21 L3,2 L0,2 Z " fill="#224386" transform="translate(95,127)"/>
<path d="M0,0 L2,0 L3,10 L3,23 L-1,29 L-3,29 L-4,4 Z " fill="#343434" transform="translate(237,154)"/>
<path d="M0,0 L3,1 L8,7 L12,8 L25,24 L34,35 L31,36 L22,26 L-2,2 Z " fill="#2873AF" transform="translate(209,110)"/>
<path d="M0,0 L2,0 L3,22 L0,28 L-3,29 L-4,4 Z " fill="#343434" transform="translate(107,154)"/>
<path d="M0,0 L5,3 L12,11 L20,19 L22,18 L31,29 L39,37 L41,41 L37,39 L27,29 L19,22 L8,11 L0,4 L-1,2 Z " fill="#F05F47" transform="translate(182,105)"/>
<path d="M0,0 L7,6 L22,20 L28,27 L23,26 L20,23 L13,19 L5,11 L0,5 Z " fill="#0A9B59" transform="translate(124,69)"/>
<path d="M0,0 L1,0 L3,6 L6,10 L0,8 L-4,10 L-4,12 L-12,19 L-18,23 L-19,20 L-7,8 Z " fill="#187C5C" transform="translate(123,69)"/>
<path d="M0,0 L0,3 L4,2 L-1,7 L-8,14 L-16,21 L-23,28 L-25,28 L-23,24 L-7,8 Z " fill="#3C7485" transform="translate(68,120)"/>
<path d="M0,0 L7,6 L21,21 L26,26 L25,28 L17,21 L1,6 L1,3 Z " fill="#32757E" transform="translate(178,119)"/>
<path d="M0,0 L7,6 L19,20 L22,23 L21,26 L6,11 L0,4 Z " fill="#DE3231" transform="translate(181,99)"/>
<path d="M0,0 L1,3 L-8,13 L-16,21 L-19,20 L-7,7 L-3,2 Z " fill="#1E559C" transform="translate(43,105)"/>
<path d="M0,0 L1,3 L-2,6 L-2,9 L-17,23 L-21,26 L-19,22 L-10,12 L-1,2 Z " fill="#EC5A48" transform="translate(46,121)"/>
<path d="M0,0 L5,5 L16,19 L14,21 L3,9 L-2,2 L0,2 Z " fill="#26579C" transform="translate(203,97)"/>
<path d="M0,0 L12,0 L12,8 L10,8 L7,3 L2,3 L3,7 L-2,6 L-3,10 L-4,5 Z " fill="#466096" transform="translate(81,127)"/>
<path d="M0,0 L2,0 L6,6 L12,7 L13,3 L13,9 L6,10 L3,9 L0,10 Z " fill="#8192B4" transform="translate(77,141)"/>
<path d="M0,0 L3,1 L6,7 L4,10 L0,10 L-4,8 L-2,2 Z " fill="#343434" transform="translate(81,154)"/>
<path d="M0,0 L3,1 L8,7 L10,7 L13,13 L14,16 L10,14 L-2,2 Z " fill="#1F79B9" transform="translate(209,110)"/>
<path d="M0,0 L0,3 L-8,11 L-5,14 L-12,21 L-13,19 L-13,15 L-12,12 L-10,12 L-8,8 Z " fill="#32797C" transform="translate(92,95)"/>
<path d="M0,0 L3,0 L1,4 L-8,14 L-11,15 L-9,11 Z " fill="#1874B6" transform="translate(38,105)"/>
<path d="M0,0 L4,0 L9,5 L16,12 L18,16 L14,14 L4,4 Z " fill="#EF6854" transform="translate(205,130)"/>
<path d="M0,0 L4,1 L8,1 L8,5 L5,6 L5,4 L3,4 L3,6 L0,6 L-1,2 Z " fill="#343434" transform="translate(182,183)"/>
<path d="M0,0 L2,0 L0,4 L-6,10 L-8,10 L-9,14 L-12,14 L-10,10 L-3,3 Z " fill="#00A04D" transform="translate(95,94)"/>
<path d="M0,0 L2,0 L2,2 L4,2 L4,0 L8,2 L6,6 L0,6 L-2,3 Z " fill="#343434" transform="translate(157,182)"/>
<path d="M0,0 L6,0 L8,3 L6,6 L4,6 L4,4 L2,4 L2,6 L-2,4 Z " fill="#343434" transform="translate(18,155)"/>
<path d="M0,0 L4,0 L8,2 L6,6 L2,6 L-2,4 Z " fill="#343434" transform="translate(122,154)"/>
<path d="M0,0 L1,0 L1,8 L8,8 L8,11 L2,11 L1,19 L0,19 Z " fill="#8597BC" transform="translate(104,129)"/>
<path d="M0,0 L10,1 L10,2 L2,3 L1,6 L4,6 L4,8 L-4,8 L-4,6 L-2,6 Z " fill="#788AB1" transform="translate(143,142)"/>
<path d="M0,0 L1,2 L-2,7 L-9,15 L-11,15 L-9,11 Z " fill="#2D76B1" transform="translate(17,131)"/>
<path d="M0,0 L3,0 L3,2 L5,3 L0,8 L-2,8 L-2,2 Z " fill="#343434" transform="translate(234,147)"/>
<path d="M0,0 L4,1 L5,4 L4,6 L-1,6 L-2,2 Z " fill="#3C5892" transform="translate(166,144)"/>
<path d="M0,0 L5,5 L11,13 L7,12 L0,4 L-1,2 Z " fill="#347BB3" transform="translate(232,133)"/>
<path d="M0,0 L1,3 L-7,11 L-10,10 L-7,7 L-6,4 L-1,1 Z " fill="#E1302E" transform="translate(53,117)"/>
<path d="M0,0 L4,3 L7,9 L2,8 L-3,2 L0,2 Z " fill="#277C73" transform="translate(174,115)"/>
<path d="M0,0 L2,0 L0,4 L-8,12 L-10,10 Z " fill="#D82D2E" transform="translate(70,101)"/>
<path d="M0,0 L6,0 L6,8 L4,8 L1,3 L-4,2 Z " fill="#7486AC" transform="translate(87,127)"/>
<path d="M0,0 L0,3 L-6,10 L-9,8 L-5,3 Z " fill="#106EB3" transform="translate(48,96)"/>
<path d="M0,0 L4,0 L5,5 L0,6 L-1,1 Z " fill="#435E96" transform="translate(124,144)"/>
<path d="M0,0 L5,5 L6,9 L0,6 L-2,4 L-1,1 Z " fill="#EA5244" transform="translate(203,123)"/>
<path d="M0,0 L1,3 L-5,10 L-6,10 L-6,5 Z " fill="#2F5D9F" transform="translate(43,105)"/>
<path d="M0,0 L7,6 L6,10 L1,5 Z " fill="#D82A2B" transform="translate(181,99)"/>
<path d="M0,0 L3,1 L-6,10 L-8,10 L-6,6 Z " fill="#6572A5" transform="translate(51,138)"/>
<path d="M0,0 L4,1 L11,8 L10,10 L2,3 Z " fill="#5A69A0" transform="translate(193,137)"/>
<path d="M0,0 L4,0 L3,3 L1,6 L6,5 L6,7 L-2,7 Z " fill="#92A1C0" transform="translate(146,135)"/>
<path d="M0,0 L5,5 L8,9 L4,8 L-2,3 L0,2 Z " fill="#396A87" transform="translate(187,128)"/>
<path d="M0,0 L7,6 L10,11 L6,10 L0,2 Z " fill="#36777C" transform="translate(162,102)"/>
<path d="M0,0 L1,2 L-3,7 L-9,12 L-11,11 Z " fill="#4D8593" transform="translate(109,77)"/>
<path d="M0,0 L2,0 L4,7 L2,7 L2,10 L0,10 Z " fill="#2E4C8C" transform="translate(77,141)"/>
<path d="M0,0 L5,5 L6,10 L3,9 L1,5 Z " fill="#2363A3" transform="translate(219,117)"/>
<path d="M0,0 L6,5 L6,8 L2,6 L-1,2 Z " fill="#1B7B61" transform="translate(156,96)"/>
<path d="M0,0 L1,3 L-7,11 L-7,8 Z " fill="#F0705C" transform="translate(33,136)"/>
<path d="M0,0 L2,3 L-4,8 L-7,7 Z " fill="#346686" transform="translate(59,130)"/>
<path d="M0,0 L4,2 L6,4 L10,5 L9,9 L0,1 Z " fill="#387984" transform="translate(142,91)"/>
<path d="M0,0 L5,1 L8,5 L8,7 L4,5 Z " fill="#2E86BE" transform="translate(215,119)"/>
<path d="M0,0 L1,4 L-3,8 L-5,8 L-3,4 Z " fill="#2D81BB" transform="translate(32,112)"/>
<path d="M0,0 L3,1 L4,6 L-2,3 L0,2 Z " fill="#10865D" transform="translate(171,113)"/>
<path d="M0,0 L4,5 L2,7 L-2,2 L0,2 Z " fill="#204B94" transform="translate(203,97)"/>
<path d="M0,0 L3,1 L-2,6 L-3,3 Z " fill="#227667" transform="translate(102,91)"/>
</svg>
